<mxfile host="dc91d0a8-6465-47ca-975c-87ce6a6d9a3f" modified="2020-10-02T05:39:16.872Z" agent="5.0 (X11; Linux x86_64) AppleWebKit/537.36 (KHTML, like Gecko) Code/1.49.2 Chrome/83.0.4103.122 Electron/9.2.1 Safari/537.36" etag="FlhQDj4cU6-xEzIlg4Ka" version="13.1.3">
    <diagram id="Qwb1rF_dMpi1wpGuuUVu" name="diagram">
        <mxGraphModel dx="1112" dy="860" grid="1" gridSize="10" guides="1" tooltips="1" connect="1" arrows="1" fold="1" page="1" pageScale="1" pageWidth="850" pageHeight="1100" math="0" shadow="0">
            <root>
                <mxCell id="0"/>
                <mxCell id="1" parent="0"/>
                <mxCell id="3" value="" style="rounded=0;whiteSpace=wrap;html=1;" parent="1" vertex="1">
                    <mxGeometry x="80" y="20" width="720" height="880" as="geometry"/>
                </mxCell>
                <mxCell id="G4ZIIX9ekKNboTHv59yJ-3" style="edgeStyle=orthogonalEdgeStyle;rounded=0;orthogonalLoop=1;jettySize=auto;html=1;" parent="1" source="G4ZIIX9ekKNboTHv59yJ-1" target="G4ZIIX9ekKNboTHv59yJ-4" edge="1">
                    <mxGeometry relative="1" as="geometry">
                        <mxPoint x="280" y="260" as="targetPoint"/>
                    </mxGeometry>
                </mxCell>
                <mxCell id="G4ZIIX9ekKNboTHv59yJ-8" style="edgeStyle=orthogonalEdgeStyle;rounded=0;orthogonalLoop=1;jettySize=auto;html=1;entryX=0.5;entryY=0;entryDx=0;entryDy=0;" parent="1" source="G4ZIIX9ekKNboTHv59yJ-1" target="G4ZIIX9ekKNboTHv59yJ-2" edge="1">
                    <mxGeometry relative="1" as="geometry"/>
                </mxCell>
                <mxCell id="G4ZIIX9ekKNboTHv59yJ-1" value="&lt;font color=&quot;#030303&quot;&gt;setup&lt;/font&gt;" style="rounded=1;whiteSpace=wrap;html=1;fillColor=#fff2cc;strokeColor=#d6b656;" parent="1" vertex="1">
                    <mxGeometry x="220" y="160" width="120" height="60" as="geometry"/>
                </mxCell>
                <mxCell id="G4ZIIX9ekKNboTHv59yJ-9" style="edgeStyle=orthogonalEdgeStyle;rounded=0;orthogonalLoop=1;jettySize=auto;html=1;" parent="1" source="G4ZIIX9ekKNboTHv59yJ-2" edge="1">
                    <mxGeometry relative="1" as="geometry">
                        <mxPoint x="280" y="400" as="targetPoint"/>
                    </mxGeometry>
                </mxCell>
                <mxCell id="G4ZIIX9ekKNboTHv59yJ-2" value="&lt;span style=&quot;background-color: rgb(255 , 242 , 204)&quot;&gt;&lt;font color=&quot;#030303&quot;&gt;loop&lt;/font&gt;&lt;/span&gt;" style="rounded=1;whiteSpace=wrap;html=1;fillColor=#fff2cc;strokeColor=#d6b656;" parent="1" vertex="1">
                    <mxGeometry x="220" y="290" width="120" height="60" as="geometry"/>
                </mxCell>
                <mxCell id="G4ZIIX9ekKNboTHv59yJ-5" style="edgeStyle=orthogonalEdgeStyle;rounded=0;orthogonalLoop=1;jettySize=auto;html=1;entryX=0.5;entryY=0;entryDx=0;entryDy=0;exitX=0.5;exitY=1;exitDx=0;exitDy=0;" parent="1" source="G4ZIIX9ekKNboTHv59yJ-6" target="G4ZIIX9ekKNboTHv59yJ-2" edge="1">
                    <mxGeometry relative="1" as="geometry">
                        <mxPoint x="560" y="230" as="sourcePoint"/>
                        <Array as="points">
                            <mxPoint x="600" y="250"/>
                            <mxPoint x="280" y="250"/>
                        </Array>
                    </mxGeometry>
                </mxCell>
                <mxCell id="G4ZIIX9ekKNboTHv59yJ-7" style="edgeStyle=orthogonalEdgeStyle;rounded=0;orthogonalLoop=1;jettySize=auto;html=1;entryX=0;entryY=0.5;entryDx=0;entryDy=0;" parent="1" source="G4ZIIX9ekKNboTHv59yJ-4" target="G4ZIIX9ekKNboTHv59yJ-6" edge="1">
                    <mxGeometry relative="1" as="geometry"/>
                </mxCell>
                <mxCell id="G4ZIIX9ekKNboTHv59yJ-4" value="Definir 3 pines de salida" style="rounded=0;whiteSpace=wrap;html=1;" parent="1" vertex="1">
                    <mxGeometry x="385" y="170" width="120" height="40" as="geometry"/>
                </mxCell>
                <mxCell id="G4ZIIX9ekKNboTHv59yJ-6" value="Encender LED Rojo" style="rounded=0;whiteSpace=wrap;html=1;" parent="1" vertex="1">
                    <mxGeometry x="550" y="170" width="120" height="40" as="geometry"/>
                </mxCell>
                <mxCell id="G4ZIIX9ekKNboTHv59yJ-12" value="" style="edgeStyle=orthogonalEdgeStyle;rounded=0;orthogonalLoop=1;jettySize=auto;html=1;" parent="1" source="G4ZIIX9ekKNboTHv59yJ-10" target="G4ZIIX9ekKNboTHv59yJ-11" edge="1">
                    <mxGeometry relative="1" as="geometry"/>
                </mxCell>
                <mxCell id="G4ZIIX9ekKNboTHv59yJ-23" value="" style="edgeStyle=orthogonalEdgeStyle;rounded=0;orthogonalLoop=1;jettySize=auto;html=1;" parent="1" source="G4ZIIX9ekKNboTHv59yJ-10" target="G4ZIIX9ekKNboTHv59yJ-21" edge="1">
                    <mxGeometry relative="1" as="geometry"/>
                </mxCell>
                <mxCell id="G4ZIIX9ekKNboTHv59yJ-10" value="Esperar 3 seg" style="rounded=0;whiteSpace=wrap;html=1;" parent="1" vertex="1">
                    <mxGeometry x="230" y="400" width="100" height="40" as="geometry"/>
                </mxCell>
                <mxCell id="G4ZIIX9ekKNboTHv59yJ-16" style="edgeStyle=orthogonalEdgeStyle;rounded=0;orthogonalLoop=1;jettySize=auto;html=1;entryX=0;entryY=0.5;entryDx=0;entryDy=0;" parent="1" source="G4ZIIX9ekKNboTHv59yJ-11" target="G4ZIIX9ekKNboTHv59yJ-15" edge="1">
                    <mxGeometry relative="1" as="geometry"/>
                </mxCell>
                <mxCell id="G4ZIIX9ekKNboTHv59yJ-11" value="Apagar LED Rojo" style="whiteSpace=wrap;html=1;rounded=0;" parent="1" vertex="1">
                    <mxGeometry x="380" y="400" width="120" height="40" as="geometry"/>
                </mxCell>
                <mxCell id="G4ZIIX9ekKNboTHv59yJ-18" style="edgeStyle=orthogonalEdgeStyle;rounded=0;orthogonalLoop=1;jettySize=auto;html=1;entryX=0.5;entryY=0;entryDx=0;entryDy=0;" parent="1" source="G4ZIIX9ekKNboTHv59yJ-15" target="G4ZIIX9ekKNboTHv59yJ-21" edge="1">
                    <mxGeometry relative="1" as="geometry">
                        <mxPoint x="640" y="419.9999999999999" as="targetPoint"/>
                        <Array as="points">
                            <mxPoint x="610" y="480"/>
                            <mxPoint x="280" y="480"/>
                        </Array>
                    </mxGeometry>
                </mxCell>
                <mxCell id="G4ZIIX9ekKNboTHv59yJ-15" value="Encender LED Amarillo" style="whiteSpace=wrap;html=1;rounded=0;" parent="1" vertex="1">
                    <mxGeometry x="550" y="400" width="120" height="40" as="geometry"/>
                </mxCell>
                <mxCell id="G4ZIIX9ekKNboTHv59yJ-25" style="edgeStyle=orthogonalEdgeStyle;rounded=0;orthogonalLoop=1;jettySize=auto;html=1;entryX=0;entryY=0.5;entryDx=0;entryDy=0;" parent="1" source="G4ZIIX9ekKNboTHv59yJ-21" target="G4ZIIX9ekKNboTHv59yJ-22" edge="1">
                    <mxGeometry relative="1" as="geometry"/>
                </mxCell>
                <mxCell id="G4ZIIX9ekKNboTHv59yJ-28" style="edgeStyle=orthogonalEdgeStyle;rounded=0;orthogonalLoop=1;jettySize=auto;html=1;" parent="1" source="G4ZIIX9ekKNboTHv59yJ-21" target="G4ZIIX9ekKNboTHv59yJ-27" edge="1">
                    <mxGeometry relative="1" as="geometry"/>
                </mxCell>
                <mxCell id="G4ZIIX9ekKNboTHv59yJ-21" value="Esperar 1 seg" style="rounded=0;whiteSpace=wrap;html=1;" parent="1" vertex="1">
                    <mxGeometry x="230" y="520" width="100" height="40" as="geometry"/>
                </mxCell>
                <mxCell id="G4ZIIX9ekKNboTHv59yJ-26" style="edgeStyle=orthogonalEdgeStyle;rounded=0;orthogonalLoop=1;jettySize=auto;html=1;entryX=0;entryY=0.5;entryDx=0;entryDy=0;" parent="1" source="G4ZIIX9ekKNboTHv59yJ-22" target="G4ZIIX9ekKNboTHv59yJ-24" edge="1">
                    <mxGeometry relative="1" as="geometry"/>
                </mxCell>
                <mxCell id="G4ZIIX9ekKNboTHv59yJ-22" value="Apagar LED Amarillo" style="whiteSpace=wrap;html=1;rounded=0;" parent="1" vertex="1">
                    <mxGeometry x="380" y="520" width="120" height="40" as="geometry"/>
                </mxCell>
                <mxCell id="G4ZIIX9ekKNboTHv59yJ-33" style="edgeStyle=orthogonalEdgeStyle;rounded=0;orthogonalLoop=1;jettySize=auto;html=1;entryX=0.5;entryY=0;entryDx=0;entryDy=0;" parent="1" source="G4ZIIX9ekKNboTHv59yJ-24" target="G4ZIIX9ekKNboTHv59yJ-27" edge="1">
                    <mxGeometry relative="1" as="geometry">
                        <Array as="points">
                            <mxPoint x="610" y="600"/>
                            <mxPoint x="280" y="600"/>
                        </Array>
                    </mxGeometry>
                </mxCell>
                <mxCell id="G4ZIIX9ekKNboTHv59yJ-24" value="Encender LED Verde" style="whiteSpace=wrap;html=1;rounded=0;" parent="1" vertex="1">
                    <mxGeometry x="550" y="520" width="120" height="40" as="geometry"/>
                </mxCell>
                <mxCell id="G4ZIIX9ekKNboTHv59yJ-31" style="edgeStyle=orthogonalEdgeStyle;rounded=0;orthogonalLoop=1;jettySize=auto;html=1;entryX=0;entryY=0.5;entryDx=0;entryDy=0;" parent="1" source="G4ZIIX9ekKNboTHv59yJ-27" target="G4ZIIX9ekKNboTHv59yJ-29" edge="1">
                    <mxGeometry relative="1" as="geometry"/>
                </mxCell>
                <mxCell id="G4ZIIX9ekKNboTHv59yJ-38" style="edgeStyle=orthogonalEdgeStyle;rounded=0;orthogonalLoop=1;jettySize=auto;html=1;entryX=0.5;entryY=0;entryDx=0;entryDy=0;" parent="1" source="G4ZIIX9ekKNboTHv59yJ-27" target="G4ZIIX9ekKNboTHv59yJ-35" edge="1">
                    <mxGeometry relative="1" as="geometry"/>
                </mxCell>
                <mxCell id="G4ZIIX9ekKNboTHv59yJ-27" value="Esperar 3 seg" style="rounded=0;whiteSpace=wrap;html=1;" parent="1" vertex="1">
                    <mxGeometry x="230" y="640" width="100" height="40" as="geometry"/>
                </mxCell>
                <mxCell id="G4ZIIX9ekKNboTHv59yJ-32" style="edgeStyle=orthogonalEdgeStyle;rounded=0;orthogonalLoop=1;jettySize=auto;html=1;entryX=0;entryY=0.5;entryDx=0;entryDy=0;" parent="1" source="G4ZIIX9ekKNboTHv59yJ-29" target="G4ZIIX9ekKNboTHv59yJ-30" edge="1">
                    <mxGeometry relative="1" as="geometry"/>
                </mxCell>
                <mxCell id="G4ZIIX9ekKNboTHv59yJ-29" value="Apagar LED Verde" style="whiteSpace=wrap;html=1;rounded=0;" parent="1" vertex="1">
                    <mxGeometry x="380" y="640" width="120" height="40" as="geometry"/>
                </mxCell>
                <mxCell id="G4ZIIX9ekKNboTHv59yJ-34" style="edgeStyle=orthogonalEdgeStyle;rounded=0;orthogonalLoop=1;jettySize=auto;html=1;entryX=0;entryY=0.5;entryDx=0;entryDy=0;exitX=0.5;exitY=1;exitDx=0;exitDy=0;" parent="1" source="G4ZIIX9ekKNboTHv59yJ-37" target="G4ZIIX9ekKNboTHv59yJ-2" edge="1">
                    <mxGeometry relative="1" as="geometry">
                        <mxPoint x="210" y="800" as="sourcePoint"/>
                        <Array as="points">
                            <mxPoint x="610" y="840"/>
                            <mxPoint x="180" y="840"/>
                            <mxPoint x="180" y="320"/>
                        </Array>
                    </mxGeometry>
                </mxCell>
                <mxCell id="G4ZIIX9ekKNboTHv59yJ-39" style="edgeStyle=orthogonalEdgeStyle;rounded=0;orthogonalLoop=1;jettySize=auto;html=1;" parent="1" source="G4ZIIX9ekKNboTHv59yJ-30" target="G4ZIIX9ekKNboTHv59yJ-35" edge="1">
                    <mxGeometry relative="1" as="geometry">
                        <Array as="points">
                            <mxPoint x="610" y="720"/>
                            <mxPoint x="280" y="720"/>
                        </Array>
                    </mxGeometry>
                </mxCell>
                <mxCell id="G4ZIIX9ekKNboTHv59yJ-30" value="Encender LED Amarillo" style="whiteSpace=wrap;html=1;rounded=0;" parent="1" vertex="1">
                    <mxGeometry x="550" y="640" width="120" height="40" as="geometry"/>
                </mxCell>
                <mxCell id="G4ZIIX9ekKNboTHv59yJ-40" style="edgeStyle=orthogonalEdgeStyle;rounded=0;orthogonalLoop=1;jettySize=auto;html=1;entryX=0;entryY=0.5;entryDx=0;entryDy=0;" parent="1" source="G4ZIIX9ekKNboTHv59yJ-35" target="G4ZIIX9ekKNboTHv59yJ-36" edge="1">
                    <mxGeometry relative="1" as="geometry"/>
                </mxCell>
                <mxCell id="G4ZIIX9ekKNboTHv59yJ-42" style="edgeStyle=orthogonalEdgeStyle;rounded=0;orthogonalLoop=1;jettySize=auto;html=1;" parent="1" source="G4ZIIX9ekKNboTHv59yJ-35" edge="1">
                    <mxGeometry relative="1" as="geometry">
                        <mxPoint x="220" y="320" as="targetPoint"/>
                        <Array as="points">
                            <mxPoint x="280" y="840"/>
                            <mxPoint x="180" y="840"/>
                            <mxPoint x="180" y="320"/>
                        </Array>
                    </mxGeometry>
                </mxCell>
                <mxCell id="G4ZIIX9ekKNboTHv59yJ-35" value="Esperar 1 seg" style="rounded=0;whiteSpace=wrap;html=1;" parent="1" vertex="1">
                    <mxGeometry x="230" y="759" width="100" height="40" as="geometry"/>
                </mxCell>
                <mxCell id="G4ZIIX9ekKNboTHv59yJ-41" style="edgeStyle=orthogonalEdgeStyle;rounded=0;orthogonalLoop=1;jettySize=auto;html=1;entryX=0;entryY=0.5;entryDx=0;entryDy=0;" parent="1" source="G4ZIIX9ekKNboTHv59yJ-36" target="G4ZIIX9ekKNboTHv59yJ-37" edge="1">
                    <mxGeometry relative="1" as="geometry"/>
                </mxCell>
                <mxCell id="G4ZIIX9ekKNboTHv59yJ-36" value="Apagar LED Amarillo" style="whiteSpace=wrap;html=1;rounded=0;" parent="1" vertex="1">
                    <mxGeometry x="380" y="759" width="120" height="40" as="geometry"/>
                </mxCell>
                <mxCell id="G4ZIIX9ekKNboTHv59yJ-37" value="Encender LED Rojo" style="whiteSpace=wrap;html=1;rounded=0;" parent="1" vertex="1">
                    <mxGeometry x="550" y="759" width="120" height="40" as="geometry"/>
                </mxCell>
                <mxCell id="2" value="&lt;span style=&quot;font-size: 24px&quot;&gt;&lt;b&gt;&lt;u&gt;Semáforo Simple&lt;/u&gt;&lt;/b&gt;&lt;/span&gt;" style="text;html=1;strokeColor=none;fillColor=none;align=center;verticalAlign=middle;whiteSpace=wrap;rounded=0;" parent="1" vertex="1">
                    <mxGeometry x="290" y="60" width="270" height="20" as="geometry"/>
                </mxCell>
                <mxCell id="6" value="@okarook" style="text;html=1;strokeColor=none;fillColor=none;align=center;verticalAlign=middle;whiteSpace=wrap;rounded=0;" parent="1" vertex="1">
                    <mxGeometry x="740" y="870" width="50" height="20" as="geometry"/>
                </mxCell>
            </root>
        </mxGraphModel>
    </diagram>
</mxfile>
